<svg id="Component_108_26" data-name="Component 108 – 26" xmlns="http://www.w3.org/2000/svg" xmlns:xlink="http://www.w3.org/1999/xlink" width="36" height="36" viewBox="0 0 36 36">
  <defs>
    <clipPath id="clip-path">
      <path id="fire" d="M10.544,1.164A1.174,1.174,0,0,0,8.389.528c-6.046,8.837,2.546,9.234,2.546,13.53a3.124,3.124,0,1,1-6.248-.046V9.837a1.172,1.172,0,0,0-2.022-.805A9.76,9.76,0,0,0,0,15.62a9.372,9.372,0,0,0,18.744,0c0-8.312-8.2-9.421-8.2-14.456Z" transform="translate(0 0.001)" fill="none" stroke="#fff" stroke-width="1"/>
    </clipPath>
  </defs>
  <g id="Component_106_3" data-name="Component 106 – 3">
    <path id="Path_2146" data-name="Path 2146" d="M18,0A18,18,0,1,1,0,18,18,18,0,0,1,18,0Z" fill="none" opacity="0.5"/>
    <g id="Mask_Group_10" data-name="Mask Group 10" transform="translate(8.269 5.358)" clip-path="url(#clip-path)">
      <path id="Path_2527" data-name="Path 2527" d="M1206.189,636.778c.657-.948,1.132-11.364,6.151-9.42s4.645,4.507,6.92,3.227,3.7-3.8,6.419-3.227,6.126,3.227,6.126,3.227v13.652h-25.616Z" transform="translate(-1208.003 -606.17)" fill="#fff" opacity="0"/>
    </g>
  </g>
  <g id="Group_727" data-name="Group 727" transform="translate(6.258 9.629)">
    <path id="Path_2062" data-name="Path 2062" d="M-10347,13780.614l6.461-6.457,4.941,4.939,7.3-7.3" transform="translate(10347 -13765.773)" fill="none" stroke="#fe0f00" stroke-linecap="round" stroke-width="1"/>
    <path id="Polygon_11" data-name="Polygon 11" d="M3.664,0,7.327,6.363H0Z" transform="translate(19.607 0) rotate(45)" fill="#fe0f00"/>
  </g>
</svg>
