<svg xmlns="http://www.w3.org/2000/svg" width="24.538" height="21.596" viewBox="0 0 24.538 21.596">
   <g transform="translate(-1187.962 -11.503)">
      <path d="M23.538,37.149v13.24A2.207,2.207,0,0,1,21.331,52.6H2.207A2.207,2.207,0,0,1,0,50.389V37.149a2.207,2.207,0,0,1,2.207-2.207H6.252l.565-1.513A2.2,2.2,0,0,1,8.882,32h5.77a2.2,2.2,0,0,1,2.064,1.43l.57,1.513h4.046A2.207,2.207,0,0,1,23.538,37.149Zm-6.252,6.62a5.517,5.517,0,1,0-5.517,5.517A5.521,5.521,0,0,0,17.286,43.769Zm-1.471,0a4.046,4.046,0,1,1-4.046-4.046A4.052,4.052,0,0,1,15.815,43.769Z" transform="translate(1188.462 -19.997)" fill="none" stroke="#fff" stroke-width="1"/>
   </g>
</svg>