<svg id="Component_106_22" data-name="Component 106 – 22" xmlns="http://www.w3.org/2000/svg" xmlns:xlink="http://www.w3.org/1999/xlink" width="36" height="36" viewBox="0 0 36 36">
  <defs>
    <clipPath id="clip-path">
      <path id="fire" d="M10.544,1.164A1.174,1.174,0,0,0,8.389.528c-6.046,8.837,2.546,9.234,2.546,13.53a3.124,3.124,0,1,1-6.248-.046V9.837a1.172,1.172,0,0,0-2.022-.805A9.76,9.76,0,0,0,0,15.62a9.372,9.372,0,0,0,18.744,0c0-8.312-8.2-9.421-8.2-14.456Z" transform="translate(1268.269 447.358)" fill="none" stroke="#fff" stroke-width="1"/>
    </clipPath>
  </defs>
  <path id="Path_2146" data-name="Path 2146" d="M18,0A18,18,0,1,1,0,18,18,18,0,0,1,18,0Z" fill="#ff5f50" opacity="0"/>
  <g id="fire-2" data-name="fire" transform="translate(8.268 5.359)" fill="none">
    <path d="M10.544,1.164A1.174,1.174,0,0,0,8.389.528c-6.046,8.837,2.546,9.234,2.546,13.53a3.124,3.124,0,1,1-6.248-.046V9.837a1.172,1.172,0,0,0-2.022-.805A9.76,9.76,0,0,0,0,15.62a9.372,9.372,0,0,0,18.744,0c0-8.312-8.2-9.421-8.2-14.456Z" stroke="none"/>
    <path d="M 9.369412422180176 -0.000629425048828125 L 9.369412422180176 0.9993705749511719 C 9.304912567138672 0.9993705749511719 9.258392333984375 1.027151107788086 9.213871955871582 1.092201232910156 C 7.623172760009766 3.41731071472168 7.000701904296875 5.243579864501953 7.310882568359375 6.675350189208984 C 7.574522018432617 7.892240524291992 8.49132251739502 8.783000946044922 9.461962699890137 9.72605037689209 C 10.62075233459473 10.85192012786865 11.93415260314941 12.12800025939941 11.93415260314941 14.05760097503662 C 11.93415260314941 16.33148956298828 10.0843620300293 18.18143081665039 7.810662269592285 18.18143081665039 C 7.79238224029541 18.18143081665039 7.774162292480469 18.18130111694336 7.755832672119141 18.18107032775879 C 5.511752128601074 18.1523609161377 3.686061859130859 16.28178024291992 3.686061859130859 14.01123046875 L 3.686061859130859 9.837210655212402 C 3.686061859130859 9.665920257568359 3.508051872253418 9.6639404296875 3.506252288818359 9.6639404296875 C 3.461612701416016 9.6639404296875 3.426352500915527 9.680990219116211 3.388011932373047 9.72130012512207 C 2.827812194824219 10.3097505569458 1.000001907348633 12.4741907119751 1.000001907348633 15.61962032318115 C 1.000001907348633 20.23603057861328 4.755722045898438 23.99175071716309 9.372132301330566 23.99175071716309 C 13.9885425567627 23.99175071716309 17.7442626953125 20.23603057861328 17.7442626953125 15.61962032318115 C 17.7442626953125 11.38266086578369 15.43527221679688 9.24906063079834 13.20230293273926 7.185710906982422 C 12.281982421875 6.335309982299805 11.41271209716797 5.532060623168945 10.74151229858398 4.610530853271484 C 9.93547248840332 3.503870010375977 9.543652534484863 2.376520156860352 9.543652534484863 1.164079666137695 C 9.543652534484863 1.015439987182617 9.421822547912598 0.9993801116943359 9.369441986083984 0.9993705749511719 L 9.369412422180176 -0.000629425048828125 M 9.369545936584473 -0.0006313323974609375 C 9.965356826782227 -0.0005664825439453125 10.54365253448486 0.4418869018554688 10.54365253448486 1.164079666137695 C 10.54365253448486 6.198671340942383 18.7442626953125 7.307220458984375 18.7442626953125 15.61962032318115 C 18.7442626953125 20.7874698638916 14.53998184204102 24.99175071716309 9.372132301330566 24.99175071716309 C 4.204282760620117 24.99175071716309 1.9073486328125e-06 20.7874698638916 1.9073486328125e-06 15.61962032318115 C 1.9073486328125e-06 12.75575065612793 1.357002258300781 10.40442085266113 2.663732528686523 9.031790733337402 C 2.905440330505371 8.777643203735352 3.208664894104004 8.663939476013184 3.50624942779541 8.663939476013184 C 4.107730865478516 8.663939476013184 4.686061859130859 9.128565788269043 4.686061859130859 9.837210655212402 L 4.686061859130859 14.01123046875 C 4.686061859130859 15.7279806137085 6.051862716674805 17.1591911315918 7.768622398376465 17.18115043640137 C 7.78267765045166 17.18133544921875 7.796648979187012 17.18142700195312 7.810662269592285 17.18142700195312 C 9.535943031311035 17.18142700195312 10.93415260314941 15.78279876708984 10.93415260314941 14.05760097503662 C 10.93415260314941 9.762040138244629 2.343032836914062 9.36421012878418 8.388542175292969 0.5275611877441406 C 8.637871742248535 0.1631679534912109 9.006912231445312 -0.00067138671875 9.369545936584473 -0.0006313323974609375 Z" stroke="none" fill="#ff3700"/>
  </g>
  <g id="Mask_Group_10" data-name="Mask Group 10" transform="translate(-1260 -442)" clip-path="url(#clip-path)">
    <path id="Path_2527" data-name="Path 2527" d="M1206.189,636.778c.657-.948,1.132-11.364,6.151-9.42s4.645,4.507,6.92,3.227,3.7-3.8,6.419-3.227,6.126,3.227,6.126,3.227v13.652h-25.616Z" transform="translate(59.195 -165.812)" fill="#ff3700"/>
  </g>
</svg>
