<svg xmlns="http://www.w3.org/2000/svg" xmlns:xlink="http://www.w3.org/1999/xlink" width="48" height="48" viewBox="0 0 48 48">
   <defs>
      <clipPath id="a">
         <path d="M16.687,64H2.373A2.373,2.373,0,0,0,0,66.373V80.687A2.373,2.373,0,0,0,2.373,83.06H16.687a2.373,2.373,0,0,0,2.373-2.373V66.373A2.373,2.373,0,0,0,16.687,64Zm9.4,1.871-5.44,3.752v7.813l5.44,3.747a1.592,1.592,0,0,0,2.5-1.281V67.152A1.592,1.592,0,0,0,26.088,65.871Z" transform="translate(0 -64)" fill="none" stroke="#fff" stroke-width="2"/>
      </clipPath>
   </defs>
   <g opacity="0">
      <path d="M24,0A24,24,0,1,1,0,24,24,24,0,0,1,24,0Z" fill="rgba(0,0,0,0.5)"/>
   </g>
   <g transform="translate(9.705 -49.53)" fill="none">
      <path d="M16.687,64H2.373A2.373,2.373,0,0,0,0,66.373V80.687A2.373,2.373,0,0,0,2.373,83.06H16.687a2.373,2.373,0,0,0,2.373-2.373V66.373A2.373,2.373,0,0,0,16.687,64Zm9.4,1.871-5.44,3.752v7.813l5.44,3.747a1.592,1.592,0,0,0,2.5-1.281V67.152A1.592,1.592,0,0,0,26.088,65.871Z" stroke="none"/>
      <path d="M 2.372556686401367 66 C 2.16712760925293 66 1.999996185302734 66.16712951660156 1.999996185302734 66.37256622314453 L 1.999996185302734 80.68735504150391 C 1.999996185302734 80.89278411865234 2.16712760925293 81.05991363525391 2.372556686401367 81.05991363525391 L 16.68734741210938 81.05991363525391 C 16.89278793334961 81.05991363525391 17.05991744995117 80.89278411865234 17.05991744995117 80.68735504150391 L 17.05991744995117 66.37256622314453 C 17.05991744995117 66.16712951660156 16.89278793334961 66 16.68735694885254 66 L 2.372556686401367 66 M 26.58987808227539 67.95488739013672 L 22.64823722839355 70.67375183105469 L 22.64823722839355 76.3853759765625 L 26.58987808227539 79.10063934326172 L 26.58987808227539 67.95488739013672 M 2.372556686401367 64 L 16.68735694885254 64 L 16.68734741210938 64 C 17.99771690368652 64 19.05991744995117 65.06219482421875 19.05991744995117 66.37256622314453 L 19.05991744995117 80.68735504150391 C 19.05991744995117 81.99772644042969 17.99771690368652 83.05991363525391 16.68734741210938 83.05991363525391 L 2.372556686401367 83.05991363525391 C 1.062196731567383 83.05991363525391 -3.814697265625e-06 81.99772644042969 -3.814697265625e-06 80.68735504150391 L -3.814697265625e-06 66.37256622314453 C -3.814697265625e-06 65.06219482421875 1.062196731567383 64 2.372556686401367 64 Z M 16.68734741210938 64 L 16.68735694885254 64 L 16.68734741210938 64 Z M 16.68735694885254 64 L 16.68734741210938 64 Z M 26.99432182312012 65.58681488037109 C 27.82082939147949 65.58682250976562 28.58987808227539 66.23191070556641 28.58987808227539 67.15184020996094 L 28.58987808227539 79.90312194824219 C 28.58987808227539 80.82588958740234 27.81965065002441 81.46893310546875 26.99442481994629 81.46893310546875 C 26.68775367736816 81.46893310546875 26.37335395812988 81.38004302978516 26.0882568359375 81.18370056152344 L 20.64823722839355 77.43625640869141 L 20.64823722839355 69.62366485595703 L 26.0882568359375 65.87124633789062 C 26.37405204772949 65.67534637451172 26.68812370300293 65.58681488037109 26.99432182312012 65.58681488037109 Z" stroke="none" fill="#fff"/>
   </g>
   <g transform="translate(9.705 14.47)" clip-path="url(#a)">
      <path d="M1206.189,637.74c.979-1.042,1.685-12.5,9.16-10.358s6.815,7.388,10.2,5.98,5.609-6.608,9.661-5.98,9.123,3.548,9.123,3.548v15.012h-38.147Z" transform="translate(-1210.705 -611.47)" fill="#fff" opacity="0"/>
   </g>
</svg>