<svg xmlns="http://www.w3.org/2000/svg" width="40" height="40" viewBox="0 0 40 40">
    <path d="M0,0H40V40H0Z" fill="rgba(255,255,255,0.13)" opacity="0" />
    <g transform="translate(4 5)">
        <g transform="translate(0.108 0.108)" fill="none">
            <path d="M13.969-.107A14.053,14.053,0,0,1,27.878,14.311,14.46,14.46,0,0,1,13.8,28.9,14.053,14.053,0,0,1-.107,14.48,14.46,14.46,0,0,1,13.969-.107Z" stroke="none" />
            <path d="M 14.05227565765381 1.892423629760742 L 13.98072528839111 1.892633438110352 C 7.35505485534668 1.932863235473633 1.932365417480469 7.584903717041016 1.892644882202148 14.49196338653564 C 1.872976303100586 17.91142272949219 3.153696060180664 21.09360313415527 5.498886108398438 23.45231246948242 C 7.708515167236328 25.6746940612793 10.62747573852539 26.89860343933105 13.7180757522583 26.89860343933105 L 13.789626121521 26.89839363098145 C 20.4152946472168 26.85816383361816 25.8379955291748 21.20612335205078 25.87771606445312 14.29906368255615 C 25.89737510681152 10.87960433959961 24.61665534973145 7.697423934936523 22.27146530151367 5.338703155517578 C 20.06183624267578 3.1163330078125 17.14287567138672 1.892423629760742 14.05227565765381 1.892423629760742 M 14.05227279663086 -0.1075801849365234 C 21.74146461486816 -0.1075801849365234 27.92358016967773 6.329706192016602 27.877685546875 14.31056308746338 C 27.83161544799805 22.32025337219238 21.52960586547852 28.85143280029297 13.80176544189453 28.89835357666016 C 13.7739372253418 28.89852333068848 13.74586772918701 28.89860725402832 13.71807861328125 28.89860725402832 C 6.028886795043945 28.89860725402832 -0.153228759765625 22.46131896972656 -0.1073246002197266 14.48046398162842 C -0.0612640380859375 6.470773696899414 6.24073600769043 -0.06040573120117188 13.96858596801758 -0.1073265075683594 C 13.99641418457031 -0.1074962615966797 14.0244836807251 -0.1075801849365234 14.05227279663086 -0.1075801849365234 Z" stroke="none" fill="#fff" />
        </g>
        <path d="M0,0,7.755,5.858" transform="translate(24.187 23.099)" fill="none" stroke="#fff" stroke-linecap="round" stroke-width="2" />
        <path d="M5.321,3.886A4.713,4.713,0,0,1,.931,2.178,6.411,6.411,0,0,1,0,0L2.808,2.051Z" transform="matrix(0.998, -0.07, 0.07, 0.998, 7.081, 20.609)" fill="#fff" stroke="#fff" stroke-width="1" />
    </g>
</svg>