<svg xmlns="http://www.w3.org/2000/svg" width="24" height="20" viewBox="0 0 24 20">
   <g transform="translate(-1028 -13)">
      <g transform="translate(1028 13)" fill="none" stroke="#fff" stroke-width="1">
         <rect width="24" height="16" rx="3" stroke="none"/>
         <rect x="0.5" y="0.5" width="23" height="15" rx="2.5" fill="none"/>
      </g>
      <g transform="translate(1045 17) rotate(90)" fill="none">
         <path d="M3.553.894a.5.5,0,0,1,.894,0L7.638,7.276A.5.5,0,0,1,7.191,8H.809a.5.5,0,0,1-.447-.724Z" stroke="none"/>
         <path d="M 3.999999523162842 2.236077785491943 L 1.618026256561279 7.000001430511475 L 6.38196849822998 7.000001430511475 L 3.999999523162842 2.236077785491943 M 3.999999761581421 0.6180338859558105 C 4.177539825439453 0.6180338859558105 4.355079650878906 0.7101664543151855 4.44720983505249 0.8944315910339355 L 7.638199806213379 7.276391506195068 C 7.80441951751709 7.608841419219971 7.56266975402832 8.000000953674316 7.190979957580566 8.000000953674316 L 0.8090195655822754 8.000000953674316 C 0.4373297691345215 8.000000953674316 0.1955795288085938 7.608841419219971 0.3617997169494629 7.276391506195068 L 3.552789688110352 0.8944315910339355 C 3.644919872283936 0.7101664543151855 3.822459697723389 0.6180338859558105 3.999999761581421 0.6180338859558105 Z" stroke="none" fill="#fff"/>
      </g>
      <line x1="9" transform="translate(1035.5 32.5)" fill="none" stroke="#fff" stroke-linecap="round" stroke-width="1"/>
   </g>
</svg>